#VRML V2.0 utf8
# 3D model generated by easyeda2kicad.py (https://github.com/uPesy/easyeda2kicad.py)

Shape{
    appearance Appearance {
        material  Material 	{
            diffuseColor 0.14901960784313725 0.14901960784313725 0.14901960784313725
            specularColor 0.07450980392156863 0.07450980392156863 0.07450980392156863
            ambientIntensity 0.2
            transparency 0
            shininess 0.5
        }
    }
    geometry IndexedFaceSet {
        ccw TRUE
        solid FALSE
        coord DEF co Coordinate {
            point [
                1.374 0.5787 0.2756, 1.0 0.6043 0.2756, 2.0 0.6043 0.2756, -1.0444 0.1595 0.2756, -1.0444 0.6043 0.2756, -0.6704 0.6043 0.2756, -1.626 0.5787 0.2756, -2.0 0.6043 0.2756, -4.0787 0.6043 0.2756, -4.0787 0.6299 0.2756, -3.8524 0.6299 0.2756, -0.166 0.1562 0.2756, -0.1799 0.1595 0.2756, -0.104 0.1595 0.2756, -0.626 0.5787 0.2756, -0.5552 0.5787 0.2756, -0.5552 0.6043 0.2756, -0.4018 0.6043 0.2756, -0.5552 0.4213 0.2756, -0.5552 0.1595 0.2756, -0.626 0.4213 0.2756, -0.6704 0.1595 0.2756, -0.4018 0.1595 0.2756, -0.4018 0.4213 0.2756, -0.2827 0.1595 0.2756, -0.374 0.4213 0.2756, -0.2827 0.6043 0.2756, -0.374 0.5787 0.2756, -0.4018 0.5787 0.2756, -0.5552 -0.5787 0.2756, -0.4018 -0.5787 0.2756, -0.5552 -0.6299 0.2756, -0.4018 -0.6299 0.2756, -0.2827 -0.6299 0.2756, -0.374 -0.5787 0.2756, -0.2827 -0.2126 0.2756, -0.374 -0.4213 0.2756, -0.4018 -0.2126 0.2756, -0.4018 -0.4213 0.2756, -0.5552 -0.4213 0.2756, -0.104 0.6043 0.2756, -0.1852 0.1608 0.2756, -0.2665 0.029 0.2756, -0.2351 0.154 0.2756, -0.2522 0.1436 0.2756, -0.1978 0.1615 0.2756, -0.2153 0.1595 0.2756, -0.2207 0.1589 0.2756, -0.1276 0.086 0.2756, -0.1272 0.0786 0.2756, -0.1969 0.1454 0.2756, -0.2619 0.1344 0.2756, -0.2665 0.1286 0.2756, -0.2541 0.0384 0.2756, -0.1309 0.1013 0.2756, -0.2526 0.0144 0.2756, -0.2363 0.0041 0.2756, -0.2184 -0.0019 0.2756, -0.1546 0.006 0.2756, -0.1393 0.0169 0.2756, -0.104 -0.2126 0.2756, -0.133 0.0235 0.2756, -0.1216 0.0408 0.2756, -0.1221 0.1179 0.2756, -0.1329 0.1334 0.2756, -0.1493 0.1477 0.2756, -0.1427 0.0358 0.2756, -0.1541 0.0254 0.2756, -0.2059 -0.0038 0.2756, -0.198 -0.004 0.2756, -0.1734 -0.0012 0.2756, -0.2541 0.1191 0.2756, -0.2415 0.1313 0.2756, -0.2454 0.0296 0.2756, -0.2267 0.1397 0.2756, -0.2315 0.02 0.2756, -0.2163 0.0143 0.2756, -0.1783 0.1431 0.2756, -0.1622 0.1368 0.2756, -0.1293 0.0612 0.2756, -0.1343 0.0482 0.2756, -0.2198 0.1422 0.2756, -0.2024 0.1452 0.2756, -0.1854 0.013 0.2756, -0.1694 0.0171 0.2756, -0.1153 0.0589 0.2756, -0.1131 0.0797 0.2756, -0.1157 0.1012 0.2756, -0.1979 0.0121 0.2756, -0.1477 0.1267 0.2756, -0.1379 0.1152 0.2756, -0.6704 0.0505 0.2756, -0.6047 0.0505 0.2756, -0.6704 -0.2126 0.2756, -0.5807 0.0 0.2756, -0.5552 -0.2126 0.2756, -0.5653 0.0 0.2756, -0.64 0.1575 0.2756, -0.642 0.1575 0.2756, -0.6704 0.0961 0.2756, -4.0787 -0.2126 0.2756, -3.8524 -0.2126 0.2756, -4.0787 -0.6299 0.2756, -3.8524 -0.6299 0.2756, -3.8524 0.6043 0.2756, -4.0787 0.1595 0.2756, -3.8524 0.1595 0.2756, -3.626 -0.5787 0.2756, -3.374 -0.5787 0.2756, -3.626 -0.4213 0.2756, -3.374 -0.4213 0.2756, -3.0 -0.2126 0.2756, -3.0 -0.6299 0.2756, -3.374 0.5787 0.2756, -3.0 0.6043 0.2756, -3.374 0.4213 0.2756, -3.0 0.1595 0.2756, -3.626 0.4213 0.2756, -3.626 0.5787 0.2756, -2.374 -0.5787 0.2756, -2.0 -0.6299 0.2756, -2.626 -0.5787 0.2756, -2.626 -0.4213 0.2756, -2.374 -0.4213 0.2756, -2.0 -0.2126 0.2756, -2.374 0.5787 0.2756, -2.374 0.4213 0.2756, -2.0 0.1595 0.2756, -2.626 0.4213 0.2756, -2.626 0.5787 0.2756, -1.374 -0.5787 0.2756, -1.0444 -0.6299 0.2756, -1.626 -0.5787 0.2756, -1.626 -0.4213 0.2756, -1.374 -0.4213 0.2756, -1.0444 -0.2126 0.2756, -1.626 0.4213 0.2756, -1.374 0.4213 0.2756, -1.374 0.5787 0.2756, -0.6704 -0.6299 0.2756, -0.6761 0.0505 0.2756, -0.6994 0.0 0.2756, -0.7147 0.0 0.2756, -0.4647 0.0 0.2756, -0.4159 0.0 0.2756, -0.5367 0.0381 0.2756, -0.526 0.022 0.2756, -0.4477 0.1575 0.2756, -0.4159 0.1575 0.2756, -0.4729 0.1565 0.2756, -0.4977 0.1518 0.2756, -0.5136 0.1438 0.2756, -0.5142 0.0115 0.2756, -0.5024 0.0054 0.2756, -0.4832 0.001 0.2756, -0.626 -0.5787 0.2756, -0.626 -0.4213 0.2756, -0.5251 0.1338 0.2756, -0.5352 0.1195 0.2756, -0.5417 0.1031 0.2756, -0.5449 0.0841 0.2756, -0.5451 0.0768 0.2756, -0.5429 0.0557 0.2756, -0.3876 0.1413 0.2756, -0.3129 0.1413 0.2756, -0.3129 0.0929 0.2756, -0.3876 0.0929 0.2756, -0.3876 0.0767 0.2756, -0.3129 0.0767 0.2756, -0.3129 0.0162 0.2756, -0.3876 0.0162 0.2756, -0.3876 0.0 0.2756, -0.2988 0.0 0.2756, -0.2988 0.1575 0.2756, -0.3876 0.1575 0.2756, -0.104 -0.6299 0.2756, -0.0949 0.0 0.2756, -0.0202 0.0 0.2756, 0.1769 -0.2126 0.2756, -0.0202 0.1575 0.2756, -0.0343 0.1575 0.2756, -0.0343 0.0162 0.2756, -0.0949 0.0162 0.2756, 0.1769 -0.6299 0.2756, 0.1769 0.6043 0.2756, 0.1769 0.1595 0.2756, 0.374 -0.5787 0.2756, 0.626 -0.5787 0.2756, 0.374 -0.4213 0.2756, 0.626 -0.4213 0.2756, 1.0 -0.2126 0.2756, 1.0 -0.6299 0.2756, 0.626 0.5787 0.2756, 0.626 0.4213 0.2756, 1.0 0.1595 0.2756, 0.374 0.4213 0.2756, 0.374 0.5787 0.2756, 1.626 -0.5787 0.2756, 2.0 -0.6299 0.2756, 1.374 -0.5787 0.2756, 1.374 -0.4213 0.2756, 1.626 -0.4213 0.2756, 2.0 -0.2126 0.2756, 1.374 0.4213 0.2756, 2.0 0.1595 0.2756, 1.626 0.4213 0.2756, 1.626 0.5787 0.2756, 2.626 -0.5787 0.2756, 3.0 -0.6299 0.2756, 2.374 -0.5787 0.2756, 2.374 -0.4213 0.2756, 2.626 -0.4213 0.2756, 3.0 -0.2126 0.2756, 2.626 0.5787 0.2756, 3.0 0.6043 0.2756, 2.626 0.4213 0.2756, 3.0 0.1595 0.2756, 2.374 0.4213 0.2756, 2.374 0.5787 0.2756, 3.374 -0.5787 0.2756, 3.626 -0.5787 0.2756, 3.374 -0.4213 0.2756, 3.626 -0.4213 0.2756, 4.0787 -0.2126 0.2756, 4.0787 -0.6299 0.2756, 4.0787 0.1595 0.2756, 3.626 0.5787 0.2756, 4.0787 0.6043 0.2756, 3.626 0.4213 0.2756, 3.374 0.4213 0.2756, 3.374 0.5787 0.2756, -3.0 0.6299 0.2756, -2.0 0.6299 0.2756, -1.0444 0.6299 0.2756, -0.6704 0.6299 0.2756, -0.5552 0.6299 0.2756, -0.4018 0.6299 0.2756, -0.2827 0.6299 0.2756, -0.104 0.6299 0.2756, 0.1769 0.6299 0.2756, 1.0 0.6299 0.2756, 2.0 0.6299 0.2756, 3.0 0.6299 0.2756, 4.0787 0.6299 0.2756, 3.2638 -0.7362 3.3465, 3.3031 -0.6969 3.3071, 3.2638 -0.2638 3.3465, 3.3031 -0.3031 3.3071, 3.6969 -0.6969 3.3071, 3.7362 -0.7362 3.3465, 3.7362 -0.2638 3.3465, 3.6969 -0.3031 3.3071, 3.6969 -0.3031 2.5591, 3.6969 -0.6969 2.5591, 3.3031 -0.6969 2.5591, 3.3031 -0.3031 2.5591, 2.2638 -0.7362 3.3465, 2.3031 -0.6969 3.3071, 2.2638 -0.2638 3.3465, 2.3031 -0.3031 3.3071, 2.6969 -0.6969 3.3071, 2.7362 -0.7362 3.3465, 2.7362 -0.2638 3.3465, 2.6969 -0.3031 3.3071, 2.6969 -0.3031 2.5591, 2.6969 -0.6969 2.5591, 2.3031 -0.6969 2.5591, 2.3031 -0.3031 2.5591, 1.2638 -0.7362 3.3465, 1.3031 -0.6969 3.3071, 1.2638 -0.2638 3.3465, 1.3031 -0.3031 3.3071, 1.6969 -0.6969 3.3071, 1.7362 -0.7362 3.3465, 1.7362 -0.2638 3.3465, 1.6969 -0.3031 3.3071, 1.6969 -0.3031 2.5591, 1.6969 -0.6969 2.5591, 1.3031 -0.6969 2.5591, 1.3031 -0.3031 2.5591, 0.2638 -0.7362 3.3465, 0.3031 -0.6969 3.3071, 0.2638 -0.2638 3.3465, 0.3031 -0.3031 3.3071, 0.6969 -0.6969 3.3071, 0.7362 -0.7362 3.3465, 0.7362 -0.2638 3.3465, 0.6969 -0.3031 3.3071, 0.6969 -0.3031 2.5591, 0.6969 -0.6969 2.5591, 0.3031 -0.6969 2.5591, 0.3031 -0.3031 2.5591, -0.7362 -0.7362 3.3465, -0.6969 -0.6969 3.3071, -0.7362 -0.2638 3.3465, -0.6969 -0.3031 3.3071, -0.3031 -0.6969 3.3071, -0.2638 -0.7362 3.3465, -0.2638 -0.2638 3.3465, -0.3031 -0.3031 3.3071, -0.3031 -0.3031 2.5591, -0.3031 -0.6969 2.5591, -0.6969 -0.6969 2.5591, -0.6969 -0.3031 2.5591, -1.7362 -0.7362 3.3465, -1.6969 -0.6969 3.3071, -1.7362 -0.2638 3.3465, -1.6969 -0.3031 3.3071, -1.3031 -0.6969 3.3071, -1.2638 -0.7362 3.3465, -1.2638 -0.2638 3.3465, -1.3031 -0.3031 3.3071, -1.3031 -0.3031 2.5591, -1.3031 -0.6969 2.5591, -1.6969 -0.6969 2.5591, -1.6969 -0.3031 2.5591, 3.9075 -0.9843 3.3465, 4.0787 -0.9843 3.3465, 4.0787 -0.8602 3.3465, 3.9075 -0.8602 3.3465, 3.0 -0.9843 3.3465, 3.0 -0.8602 3.3465, 2.0 -0.9843 3.3465, 2.0 -0.8602 3.3465, 1.0 -0.9843 3.3465, 1.0 -0.8602 3.3465, -0.0 -0.9843 3.3465, -0.0 -0.8602 3.3465, -1.0 -0.9843 3.3465, -1.0 -0.8602 3.3465, -2.0 -0.9843 3.3465, -2.0 -0.8602 3.3465, -3.0 -0.9843 3.3465, -3.0 -0.8602 3.3465, -4.0787 -0.9843 3.3465, -4.0787 -0.8602 3.3465, -3.2638 -0.2638 3.3465, -3.0 0.0 3.3465, -3.7362 -0.2638 3.3465, -4.0787 0.0 3.3465, -3.7362 -0.7362 3.3465, -3.2638 -0.7362 3.3465, -2.7362 -0.7362 3.3465, -2.2638 -0.7362 3.3465, -2.2638 -0.2638 3.3465, -2.0 0.0 3.3465, -2.7362 -0.2638 3.3465, -1.0 0.0 3.3465, -0.0 0.0 3.3465, 1.0 0.0 3.3465, 2.0 0.0 3.3465, 3.0 0.0 3.3465, 3.9075 0.0 3.3465, -3.7362 0.2638 3.3465, -3.2638 0.2638 3.3465, -3.2638 0.7362 3.3465, -3.0 0.9843 3.3465, -3.7362 0.7362 3.3465, -4.0787 0.9843 3.3465, -2.2638 0.7362 3.3465, -2.0 0.9843 3.3465, -2.7362 0.7362 3.3465, -2.7362 0.2638 3.3465, -2.2638 0.2638 3.3465, -1.2638 0.7362 3.3465, -1.0 0.9843 3.3465, -1.7362 0.7362 3.3465, -1.7362 0.2638 3.3465, -1.2638 0.2638 3.3465, -0.2638 0.7362 3.3465, -0.0 0.9843 3.3465, -0.7362 0.7362 3.3465, -0.7362 0.2638 3.3465, -0.2638 0.2638 3.3465, 0.7362 0.7362 3.3465, 1.0 0.9843 3.3465, 0.2638 0.7362 3.3465, 0.2638 0.2638 3.3465, 0.7362 0.2638 3.3465, 1.7362 0.7362 3.3465, 2.0 0.9843 3.3465, 1.2638 0.7362 3.3465, 1.2638 0.2638 3.3465, 1.7362 0.2638 3.3465, 2.7362 0.7362 3.3465, 3.0 0.9843 3.3465, 2.2638 0.7362 3.3465, 2.2638 0.2638 3.3465, 2.7362 0.2638 3.3465, 3.7362 0.7362 3.3465, 3.9075 0.9843 3.3465, 3.2638 0.7362 3.3465, 3.2638 0.2638 3.3465, 3.7362 0.2638 3.3465, 4.0787 0.0 3.3465, 4.0787 0.9843 3.3465, 3.6969 0.6969 3.3071, 3.6969 0.3031 3.3071, 3.3031 0.6969 3.3071, 3.3031 0.3031 3.3071, 3.3031 0.3031 2.5591, 3.3031 0.6969 2.5591, 3.6969 0.6969 2.5591, 3.6969 0.3031 2.5591, 2.6969 0.6969 3.3071, 2.6969 0.3031 3.3071, 2.3031 0.6969 3.3071, 2.3031 0.3031 3.3071, 2.3031 0.3031 2.5591, 2.3031 0.6969 2.5591, 2.6969 0.6969 2.5591, 2.6969 0.3031 2.5591, 1.6969 0.6969 3.3071, 1.6969 0.3031 3.3071, 1.3031 0.6969 3.3071, 1.3031 0.3031 3.3071, 1.3031 0.3031 2.5591, 1.3031 0.6969 2.5591, 1.6969 0.6969 2.5591, 1.6969 0.3031 2.5591, 0.6969 0.6969 3.3071, 0.6969 0.3031 3.3071, 0.3031 0.6969 3.3071, 0.3031 0.3031 3.3071, 0.3031 0.3031 2.5591, 0.3031 0.6969 2.5591, 0.6969 0.6969 2.5591, 0.6969 0.3031 2.5591, -0.3031 0.6969 3.3071, -0.3031 0.3031 3.3071, -0.6969 0.6969 3.3071, -0.6969 0.3031 3.3071, -0.6969 0.3031 2.5591, -0.6969 0.6969 2.5591, -0.3031 0.6969 2.5591, -0.3031 0.3031 2.5591, -1.3031 0.6969 3.3071, -1.3031 0.3031 3.3071, -1.6969 0.6969 3.3071, -1.6969 0.3031 3.3071, -1.6969 0.3031 2.5591, -1.6969 0.6969 2.5591, -1.3031 0.6969 2.5591, -1.3031 0.3031 2.5591, -4.0787 0.9843 0.0, 4.0787 0.9843 0.0, -4.0787 0.6299 0.0, 4.0787 0.6299 0.0, 4.0787 -0.9843 0.0, 4.0787 -0.6299 0.0, 4.0787 -0.002 0.2756, 4.0787 0.2914 0.2756, -4.0787 -0.6299 0.0, -4.0787 -0.9843 0.0, -4.0787 0.2914 0.2756, -4.0787 -0.002 0.2756, -2.0444 0.6299 0.2756, -2.0444 -0.6299 0.2756, -3.6969 -0.6969 3.3071, -3.6969 -0.6969 2.5591, -3.6969 -0.3031 3.3071, -3.6969 -0.3031 2.5591, -3.3031 -0.3031 3.3071, -3.3031 -0.3031 2.5591, -3.3031 -0.6969 3.3071, -3.3031 -0.6969 2.5591, -3.3031 0.6969 3.3071, -3.3031 0.6969 2.5591, -3.3031 0.3031 3.3071, -3.3031 0.3031 2.5591, -3.6969 0.3031 3.3071, -3.6969 0.3031 2.5591, -3.6969 0.6969 3.3071, -3.6969 0.6969 2.5591, -3.6969 0.6969 2.5591
            ]
        }
        coordIndex [
            0,1,2,-1,3,4,5,-1,6,7,4,-1,8,9,10,-1,11,12,13,-1,14,5,15,-1,15,5,16,-1,15,16,17,-1,18,19,20,-1,20,19,21,-1,22,23,24,-1,24,23,25,-1,24,25,26,-1,26,25,27,-1,26,27,17,-1,17,27,28,-1,17,28,15,-1,29,30,31,-1,31,30,32,-1,32,30,33,-1,33,30,34,-1,33,34,35,-1,35,34,36,-1,35,36,37,-1,37,36,38,-1,37,38,39,-1,13,12,40,-1,40,12,41,-1,40,41,26,-1,35,24,42,-1,43,44,24,-1,41,45,26,-1,26,45,46,-1,26,46,24,-1,24,46,47,-1,24,47,43,-1,48,49,50,-1,44,51,24,-1,24,51,52,-1,24,52,42,-1,42,52,53,-1,48,50,54,-1,42,55,35,-1,35,55,56,-1,35,56,57,-1,58,59,60,-1,60,59,61,-1,60,61,62,-1,63,64,13,-1,13,64,65,-1,13,65,11,-1,50,66,67,-1,68,69,60,-1,60,69,70,-1,60,70,58,-1,52,71,53,-1,53,71,72,-1,53,72,73,-1,73,72,74,-1,73,74,75,-1,75,74,76,-1,50,77,78,-1,49,79,50,-1,50,79,80,-1,50,80,66,-1,81,82,83,-1,83,82,50,-1,83,50,84,-1,84,50,67,-1,62,85,60,-1,60,85,86,-1,60,86,13,-1,13,86,87,-1,13,87,63,-1,81,83,74,-1,74,83,88,-1,74,88,76,-1,78,89,50,-1,50,89,90,-1,50,90,54,-1,91,92,93,-1,93,92,94,-1,93,94,95,-1,95,94,96,-1,95,96,19,-1,19,96,97,-1,19,97,21,-1,21,97,98,-1,21,98,99,-1,100,101,102,-1,102,101,103,-1,8,104,105,-1,105,104,106,-1,105,106,100,-1,103,107,108,-1,107,103,109,-1,109,103,101,-1,109,101,110,-1,110,101,111,-1,110,111,108,-1,108,111,112,-1,108,112,103,-1,113,114,115,-1,115,114,116,-1,115,116,117,-1,117,116,106,-1,117,106,118,-1,118,106,104,-1,118,104,113,-1,113,104,114,-1,119,120,121,-1,121,120,112,-1,121,112,122,-1,122,112,111,-1,122,111,123,-1,123,111,124,-1,123,124,119,-1,119,124,120,-1,125,7,126,-1,126,7,127,-1,126,127,128,-1,128,127,116,-1,128,116,129,-1,129,116,114,-1,129,114,125,-1,125,114,7,-1,130,131,132,-1,132,131,120,-1,132,120,133,-1,133,120,124,-1,133,124,134,-1,134,124,135,-1,134,135,130,-1,100,106,101,-1,101,106,116,-1,101,116,111,-1,111,116,127,-1,111,127,124,-1,124,127,3,-1,124,3,135,-1,7,6,127,-1,127,6,136,-1,127,136,3,-1,3,136,137,-1,3,137,4,-1,4,137,138,-1,4,138,6,-1,130,135,131,-1,131,135,93,-1,131,93,139,-1,140,91,141,-1,141,91,93,-1,141,93,142,-1,142,93,135,-1,142,135,99,-1,99,135,3,-1,99,3,21,-1,21,3,5,-1,21,5,20,-1,20,5,14,-1,143,144,37,-1,145,146,95,-1,18,23,19,-1,19,23,22,-1,19,22,147,-1,147,22,148,-1,147,149,19,-1,19,149,150,-1,19,150,151,-1,146,152,95,-1,95,152,153,-1,95,153,154,-1,29,31,155,-1,155,31,139,-1,155,139,156,-1,156,139,93,-1,156,93,39,-1,39,93,95,-1,39,95,37,-1,37,95,154,-1,37,154,143,-1,151,157,19,-1,19,157,158,-1,19,158,159,-1,159,160,19,-1,19,160,161,-1,19,161,95,-1,95,161,162,-1,95,162,145,-1,163,164,165,-1,166,167,37,-1,165,166,163,-1,163,166,37,-1,163,37,22,-1,22,37,144,-1,22,144,148,-1,168,169,167,-1,167,169,170,-1,167,170,37,-1,37,170,171,-1,37,171,35,-1,35,171,172,-1,35,172,24,-1,24,172,173,-1,24,173,22,-1,22,173,174,-1,22,174,163,-1,57,68,35,-1,35,68,60,-1,35,60,33,-1,33,60,175,-1,176,177,178,-1,179,180,13,-1,13,180,181,-1,181,182,13,-1,13,182,176,-1,13,176,60,-1,60,176,178,-1,60,178,175,-1,175,178,183,-1,40,184,13,-1,13,184,185,-1,13,185,179,-1,179,185,177,-1,183,186,187,-1,186,183,188,-1,188,183,178,-1,188,178,189,-1,189,178,190,-1,189,190,187,-1,187,190,191,-1,187,191,183,-1,192,1,193,-1,193,1,194,-1,193,194,195,-1,195,194,185,-1,195,185,196,-1,196,185,184,-1,196,184,192,-1,192,184,1,-1,197,198,199,-1,199,198,191,-1,199,191,200,-1,200,191,190,-1,200,190,201,-1,201,190,202,-1,201,202,197,-1,197,202,198,-1,1,0,194,-1,194,0,203,-1,194,203,204,-1,204,203,205,-1,204,205,2,-1,2,205,206,-1,2,206,0,-1,207,208,209,-1,209,208,198,-1,209,198,210,-1,210,198,202,-1,210,202,211,-1,211,202,212,-1,211,212,207,-1,207,212,208,-1,213,214,215,-1,215,214,216,-1,215,216,217,-1,217,216,204,-1,217,204,218,-1,218,204,2,-1,218,2,213,-1,213,2,214,-1,208,219,220,-1,219,208,221,-1,221,208,212,-1,221,212,222,-1,222,212,223,-1,222,223,220,-1,220,223,224,-1,220,224,208,-1,177,185,178,-1,178,185,194,-1,178,194,190,-1,190,194,204,-1,190,204,202,-1,202,204,216,-1,202,216,212,-1,212,216,225,-1,212,225,223,-1,226,227,228,-1,228,227,225,-1,228,225,229,-1,229,225,216,-1,229,216,230,-1,230,216,214,-1,230,214,226,-1,226,214,227,-1,8,10,104,-1,104,10,231,-1,104,231,114,-1,114,231,232,-1,114,232,7,-1,7,232,233,-1,7,233,4,-1,4,233,234,-1,4,234,5,-1,5,234,235,-1,5,235,16,-1,16,235,236,-1,16,236,17,-1,17,236,237,-1,17,237,26,-1,26,237,238,-1,26,238,40,-1,40,238,239,-1,40,239,184,-1,184,239,240,-1,184,240,1,-1,1,240,241,-1,1,241,2,-1,2,241,242,-1,2,242,214,-1,214,242,243,-1,214,243,227,-1,244,245,246,-1,246,245,247,-1,245,244,248,-1,248,244,249,-1,250,251,249,-1,249,251,248,-1,246,247,250,-1,250,247,251,-1,251,252,248,-1,248,252,253,-1,253,252,254,-1,254,252,255,-1,248,253,245,-1,245,253,254,-1,245,254,247,-1,247,254,255,-1,247,255,251,-1,251,255,252,-1,256,257,258,-1,258,257,259,-1,257,256,260,-1,260,256,261,-1,262,263,261,-1,261,263,260,-1,258,259,262,-1,262,259,263,-1,263,264,260,-1,260,264,265,-1,265,264,266,-1,266,264,267,-1,260,265,257,-1,257,265,266,-1,257,266,259,-1,259,266,267,-1,259,267,263,-1,263,267,264,-1,268,269,270,-1,270,269,271,-1,269,268,272,-1,272,268,273,-1,274,275,273,-1,273,275,272,-1,270,271,274,-1,274,271,275,-1,275,276,272,-1,272,276,277,-1,277,276,278,-1,278,276,279,-1,272,277,269,-1,269,277,278,-1,269,278,271,-1,271,278,279,-1,271,279,275,-1,275,279,276,-1,280,281,282,-1,282,281,283,-1,281,280,284,-1,284,280,285,-1,286,287,285,-1,285,287,284,-1,282,283,286,-1,286,283,287,-1,287,288,284,-1,284,288,289,-1,289,288,290,-1,290,288,291,-1,284,289,281,-1,281,289,290,-1,281,290,283,-1,283,290,291,-1,283,291,287,-1,287,291,288,-1,292,293,294,-1,294,293,295,-1,293,292,296,-1,296,292,297,-1,298,299,297,-1,297,299,296,-1,294,295,298,-1,298,295,299,-1,299,300,296,-1,296,300,301,-1,301,300,302,-1,302,300,303,-1,296,301,293,-1,293,301,302,-1,293,302,295,-1,295,302,303,-1,295,303,299,-1,299,303,300,-1,304,305,306,-1,306,305,307,-1,305,304,308,-1,308,304,309,-1,310,311,309,-1,309,311,308,-1,306,307,310,-1,310,307,311,-1,311,312,308,-1,308,312,313,-1,313,312,314,-1,314,312,315,-1,308,313,305,-1,305,313,314,-1,305,314,307,-1,307,314,315,-1,307,315,311,-1,311,315,312,-1,316,317,318,-1,316,319,320,-1,320,319,321,-1,320,321,322,-1,322,321,323,-1,322,323,324,-1,324,323,325,-1,324,325,326,-1,326,325,327,-1,326,327,328,-1,328,327,329,-1,328,329,330,-1,330,329,331,-1,330,331,332,-1,332,331,333,-1,332,333,334,-1,334,333,335,-1,336,337,338,-1,338,337,339,-1,338,339,340,-1,340,339,335,-1,340,335,341,-1,341,335,333,-1,341,333,336,-1,336,333,337,-1,342,333,343,-1,343,333,331,-1,343,331,344,-1,344,331,345,-1,344,345,346,-1,346,345,337,-1,346,337,342,-1,342,337,333,-1,304,331,309,-1,309,331,329,-1,309,329,310,-1,310,329,347,-1,310,347,306,-1,306,347,345,-1,306,345,304,-1,304,345,331,-1,292,329,297,-1,297,329,327,-1,297,327,298,-1,298,327,348,-1,298,348,294,-1,294,348,347,-1,294,347,292,-1,292,347,329,-1,280,327,285,-1,285,327,325,-1,285,325,286,-1,286,325,349,-1,286,349,282,-1,282,349,348,-1,282,348,280,-1,280,348,327,-1,268,325,273,-1,273,325,323,-1,273,323,274,-1,274,323,350,-1,274,350,270,-1,270,350,349,-1,270,349,268,-1,268,349,325,-1,256,323,261,-1,261,323,321,-1,261,321,262,-1,262,321,351,-1,262,351,258,-1,258,351,350,-1,258,350,256,-1,256,350,323,-1,244,321,249,-1,249,321,319,-1,249,319,250,-1,250,319,352,-1,250,352,246,-1,246,352,351,-1,246,351,244,-1,244,351,321,-1,353,339,354,-1,354,339,337,-1,354,337,355,-1,355,337,356,-1,355,356,357,-1,357,356,358,-1,357,358,353,-1,353,358,339,-1,359,360,361,-1,361,360,356,-1,361,356,362,-1,362,356,337,-1,362,337,363,-1,363,337,345,-1,363,345,359,-1,359,345,360,-1,364,365,366,-1,366,365,360,-1,366,360,367,-1,367,360,345,-1,367,345,368,-1,368,345,347,-1,368,347,364,-1,364,347,365,-1,369,370,371,-1,371,370,365,-1,371,365,372,-1,372,365,347,-1,372,347,373,-1,373,347,348,-1,373,348,369,-1,369,348,370,-1,374,375,376,-1,376,375,370,-1,376,370,377,-1,377,370,348,-1,377,348,378,-1,378,348,349,-1,378,349,374,-1,374,349,375,-1,379,380,381,-1,381,380,375,-1,381,375,382,-1,382,375,349,-1,382,349,383,-1,383,349,350,-1,383,350,379,-1,379,350,380,-1,384,385,386,-1,386,385,380,-1,386,380,387,-1,387,380,350,-1,387,350,388,-1,388,350,351,-1,388,351,384,-1,384,351,385,-1,389,390,391,-1,391,390,385,-1,391,385,392,-1,392,385,351,-1,392,351,393,-1,393,351,352,-1,393,352,389,-1,389,352,390,-1,316,318,319,-1,319,318,394,-1,319,394,352,-1,352,394,395,-1,352,395,390,-1,389,396,393,-1,393,396,397,-1,396,389,398,-1,398,389,391,-1,392,399,391,-1,391,399,398,-1,393,397,392,-1,392,397,399,-1,399,400,398,-1,398,400,401,-1,401,400,402,-1,402,400,403,-1,398,401,396,-1,396,401,402,-1,396,402,397,-1,397,402,403,-1,397,403,399,-1,399,403,400,-1,384,404,388,-1,388,404,405,-1,404,384,406,-1,406,384,386,-1,387,407,386,-1,386,407,406,-1,388,405,387,-1,387,405,407,-1,407,408,406,-1,406,408,409,-1,409,408,410,-1,410,408,411,-1,406,409,404,-1,404,409,410,-1,404,410,405,-1,405,410,411,-1,405,411,407,-1,407,411,408,-1,379,412,383,-1,383,412,413,-1,412,379,414,-1,414,379,381,-1,382,415,381,-1,381,415,414,-1,383,413,382,-1,382,413,415,-1,415,416,414,-1,414,416,417,-1,417,416,418,-1,418,416,419,-1,414,417,412,-1,412,417,418,-1,412,418,413,-1,413,418,419,-1,413,419,415,-1,415,419,416,-1,374,420,378,-1,378,420,421,-1,420,374,422,-1,422,374,376,-1,377,423,376,-1,376,423,422,-1,378,421,377,-1,377,421,423,-1,423,424,422,-1,422,424,425,-1,425,424,426,-1,426,424,427,-1,422,425,420,-1,420,425,426,-1,420,426,421,-1,421,426,427,-1,421,427,423,-1,423,427,424,-1,369,428,373,-1,373,428,429,-1,428,369,430,-1,430,369,371,-1,372,431,371,-1,371,431,430,-1,373,429,372,-1,372,429,431,-1,431,432,430,-1,430,432,433,-1,433,432,434,-1,434,432,435,-1,430,433,428,-1,428,433,434,-1,428,434,429,-1,429,434,435,-1,429,435,431,-1,431,435,432,-1,364,436,368,-1,368,436,437,-1,436,364,438,-1,438,364,366,-1,367,439,366,-1,366,439,438,-1,368,437,367,-1,367,437,439,-1,439,440,438,-1,438,440,441,-1,441,440,442,-1,442,440,443,-1,438,441,436,-1,436,441,442,-1,436,442,437,-1,437,442,443,-1,437,443,439,-1,439,443,440,-1,444,445,446,-1,446,445,447,-1,317,448,224,-1,224,448,449,-1,224,223,317,-1,317,223,450,-1,317,450,395,-1,395,450,225,-1,395,225,451,-1,447,445,243,-1,243,445,395,-1,243,395,227,-1,227,395,451,-1,358,395,444,-1,444,395,445,-1,8,358,9,-1,9,358,444,-1,9,444,446,-1,452,453,102,-1,102,453,334,-1,102,334,100,-1,8,454,358,-1,358,454,105,-1,358,105,334,-1,334,105,455,-1,334,455,100,-1,317,334,448,-1,448,334,453,-1,448,453,449,-1,449,453,452,-1,446,447,238,-1,238,447,243,-1,238,237,446,-1,446,237,236,-1,446,236,235,-1,235,456,446,-1,446,456,10,-1,446,10,9,-1,102,103,452,-1,452,103,457,-1,175,224,449,-1,457,31,452,-1,452,31,32,-1,452,32,449,-1,449,32,33,-1,449,33,175,-1,458,459,460,-1,460,459,461,-1,460,461,462,-1,462,461,463,-1,462,463,464,-1,464,463,465,-1,464,465,458,-1,458,465,459,-1,465,463,459,-1,459,463,461,-1,466,467,468,-1,468,467,469,-1,468,469,470,-1,470,469,471,-1,470,471,472,-1,472,471,473,-1,472,473,466,-1,466,473,467,-1,473,471,467,-1,467,471,469,-1,336,462,341,-1,341,462,464,-1,338,460,336,-1,336,460,462,-1,458,340,464,-1,464,340,341,-1,340,458,338,-1,338,458,460,-1,353,470,357,-1,357,470,472,-1,354,468,353,-1,353,468,470,-1,466,355,472,-1,472,355,357,-1,355,466,354,-1,354,466,468,-1,
        ]
    }
}
Shape{
    appearance Appearance {
        material  Material 	{
            diffuseColor 0.7529411764705882 0.7529411764705882 0.7529411764705882
            specularColor 0.3764705882352941 0.3764705882352941 0.3764705882352941
            ambientIntensity 0.2
            transparency 0
            shininess 0.5
        }
    }
    geometry IndexedFaceSet {
        ccw TRUE
        solid FALSE
        coord DEF co Coordinate {
            point [
                -3.626 -0.4213 -1.2205, -3.626 -0.4213 0.2756, -3.374 -0.4213 -1.2205, -3.374 -0.4213 0.2756, -3.626 -0.4606 -1.2598, -3.374 -0.4606 -1.2598, -3.626 -0.5394 -1.2598, -3.374 -0.5394 -1.2598, -3.626 -0.5787 -1.2205, -3.374 -0.5787 -1.2205, -3.626 -0.5787 0.2756, -3.374 -0.5787 0.2756, -3.626 0.5787 -1.2205, -3.626 0.5787 0.2756, -3.374 0.5787 -1.2205, -3.374 0.5787 0.2756, -3.626 0.5394 -1.2598, -3.374 0.5394 -1.2598, -3.626 0.4606 -1.2598, -3.374 0.4606 -1.2598, -3.626 0.4213 -1.2205, -3.374 0.4213 -1.2205, -3.626 0.4213 0.2756, -3.374 0.4213 0.2756, -0.64 0.1575 0.315, -0.642 0.1575 0.315, -0.64 0.1575 0.2756, -0.642 0.1575 0.2756, -0.7147 0.0 0.315, -0.7147 0.0 0.2756, -0.6994 0.0 0.315, -0.6994 0.0 0.2756, -0.6761 0.0505 0.315, -0.6761 0.0505 0.2756, -0.6047 0.0505 0.315, -0.6047 0.0505 0.2756, -0.5807 0.0 0.315, -0.5807 0.0 0.2756, -0.5653 0.0 0.315, -0.5653 0.0 0.2756, -0.6686 0.0666 0.315, -0.6123 0.0666 0.315, -0.6409 0.1268 0.315, -0.6686 0.0666 0.2756, -0.6409 0.1268 0.2756, -0.6123 0.0666 0.2756, -0.4647 0.0 0.315, -0.4159 0.0 0.315, -0.4647 0.0 0.2756, -0.4159 0.0 0.2756, -0.4159 0.1575 0.315, -0.4159 0.1575 0.2756, -0.4477 0.1575 0.315, -0.4477 0.1575 0.2756, -0.4977 0.1518 0.315, -0.4977 0.1518 0.2756, -0.4729 0.1565 0.2756, -0.4729 0.1565 0.315, -0.5451 0.0768 0.315, -0.5451 0.0768 0.2756, -0.5422 0.1015 0.2756, -0.5422 0.1015 0.315, -0.5261 0.1327 0.2756, -0.5261 0.1327 0.315, -0.4817 0.0009 0.2756, -0.4817 0.0009 0.315, -0.5134 0.011 0.2756, -0.5134 0.011 0.315, -0.5362 0.0371 0.2756, -0.5362 0.0371 0.315, -0.5285 0.0572 0.315, -0.5156 0.0341 0.315, -0.4931 0.0202 0.315, -0.4708 0.0168 0.315, -0.4481 0.0162 0.315, -0.43 0.0162 0.315, -0.43 0.1413 0.315, -0.4411 0.1413 0.315, -0.4655 0.1406 0.315, -0.4895 0.1369 0.315, -0.5069 0.1285 0.315, -0.5241 0.1082 0.315, -0.531 0.0768 0.315, -0.43 0.1413 0.2756, -0.43 0.0162 0.2756, -0.4411 0.1413 0.2756, -0.4655 0.1406 0.2756, -0.4895 0.1369 0.2756, -0.5069 0.1285 0.2756, -0.5241 0.1082 0.2756, -0.531 0.0768 0.2756, -0.5285 0.0572 0.2756, -0.5156 0.0341 0.2756, -0.4931 0.0202 0.2756, -0.4708 0.0168 0.2756, -0.4481 0.0162 0.2756, -0.2988 0.0 0.315, -0.2988 0.1575 0.315, -0.2988 0.0 0.2756, -0.2988 0.1575 0.2756, -0.3876 0.1575 0.315, -0.3876 0.1575 0.2756, -0.3876 0.1413 0.315, -0.3876 0.1413 0.2756, -0.3129 0.1413 0.315, -0.3129 0.1413 0.2756, -0.3129 0.0929 0.315, -0.3129 0.0929 0.2756, -0.3876 0.0929 0.315, -0.3876 0.0929 0.2756, -0.3876 0.0767 0.315, -0.3876 0.0767 0.2756, -0.3129 0.0767 0.315, -0.3129 0.0767 0.2756, -0.3129 0.0162 0.315, -0.3129 0.0162 0.2756, -0.3876 0.0162 0.315, -0.3876 0.0162 0.2756, -0.3876 0.0 0.315, -0.3876 0.0 0.2756, -0.1978 0.1615 0.2756, -0.1978 0.1615 0.315, -0.2074 0.1595 0.2756, -0.2362 0.1534 0.315, -0.2362 0.1534 0.2756, -0.2524 0.1435 0.315, -0.2524 0.1435 0.2756, -0.2615 0.1348 0.315, -0.2615 0.1348 0.2756, -0.2665 0.1286 0.315, -0.2665 0.1286 0.2756, -0.2541 0.1191 0.315, -0.2541 0.1191 0.2756, -0.1969 0.1454 0.315, -0.1969 0.1454 0.2756, -0.2034 0.1451 0.2756, -0.2034 0.1451 0.315, -0.2137 0.1437 0.2756, -0.2137 0.1437 0.315, -0.2286 0.1389 0.2756, -0.2286 0.1389 0.315, -0.1272 0.0786 0.315, -0.1272 0.0786 0.2756, -0.1274 0.0849 0.2756, -0.1274 0.0849 0.315, -0.1376 0.1147 0.2756, -0.1376 0.1147 0.315, -0.162 0.1367 0.2756, -0.162 0.1367 0.315, -0.1979 0.0121 0.315, -0.1979 0.0121 0.2756, -0.188 0.0126 0.2756, -0.188 0.0126 0.315, -0.1571 0.0234 0.2756, -0.1571 0.0234 0.315, -0.1354 0.0461 0.2756, -0.1354 0.0461 0.315, -0.2541 0.0384 0.315, -0.2541 0.0384 0.2756, -0.229 0.0188 0.2756, -0.229 0.0188 0.315, -0.2665 0.029 0.315, -0.2665 0.029 0.2756, -0.198 -0.004 0.315, -0.198 -0.004 0.2756, -0.2059 -0.0037 0.2756, -0.2059 -0.0037 0.315, -0.2179 -0.002 0.2756, -0.2184 -0.0019 0.315, -0.2184 -0.0019 0.2756, -0.2363 0.0041 0.2756, -0.2363 0.0041 0.315, -0.1867 -0.002 0.2756, -0.1623 0.0024 0.315, -0.1623 0.0024 0.2756, -0.147 0.0107 0.315, -0.147 0.0107 0.2756, -0.138 0.0182 0.315, -0.138 0.0182 0.2756, -0.133 0.0235 0.315, -0.133 0.0235 0.2756, -0.1131 0.0797 0.315, -0.1131 0.0797 0.2756, -0.1179 0.0497 0.2756, -0.1179 0.0497 0.315, -0.1908 0.1613 0.2756, -0.1908 0.1613 0.315, -0.1853 0.1595 0.2756, -0.1501 0.1483 0.315, -0.1501 0.1483 0.2756, -0.1232 0.1199 0.2756, -0.1232 0.1199 0.315, -0.0202 0.0 0.315, -0.0202 0.1575 0.315, -0.0202 0.0 0.2756, -0.0202 0.1575 0.2756, -0.0343 0.1575 0.315, -0.0343 0.1575 0.2756, -0.0343 0.0162 0.315, -0.0343 0.0162 0.2756, -0.0949 0.0162 0.315, -0.0949 0.0162 0.2756, -0.0949 0.0 0.315, -0.0949 0.0 0.2756, -0.0949 0.0 0.2756
            ]
        }
        coordIndex [
            0,1,2,-1,2,1,3,-1,4,0,5,-1,5,0,2,-1,6,4,7,-1,7,4,5,-1,8,6,9,-1,9,6,7,-1,10,8,11,-1,11,8,9,-1,6,8,4,-1,4,8,10,-1,4,10,0,-1,0,10,1,-1,2,3,5,-1,5,3,11,-1,5,11,7,-1,7,11,9,-1,12,13,14,-1,14,13,15,-1,16,12,17,-1,17,12,14,-1,18,16,19,-1,19,16,17,-1,20,18,21,-1,21,18,19,-1,22,20,23,-1,23,20,21,-1,20,22,18,-1,18,22,13,-1,18,13,16,-1,16,13,12,-1,17,14,19,-1,19,14,15,-1,19,15,21,-1,21,15,23,-1,24,25,26,-1,26,25,27,-1,25,28,27,-1,27,28,29,-1,28,30,29,-1,29,30,31,-1,30,32,31,-1,31,32,33,-1,32,34,33,-1,33,34,35,-1,34,36,35,-1,35,36,37,-1,36,38,37,-1,37,38,39,-1,38,24,39,-1,39,24,26,-1,40,28,25,-1,24,41,25,-1,25,41,42,-1,25,42,40,-1,38,36,34,-1,30,28,32,-1,32,28,40,-1,32,40,34,-1,34,40,41,-1,34,41,38,-1,38,41,24,-1,40,42,43,-1,43,42,44,-1,41,40,45,-1,45,40,43,-1,42,41,44,-1,44,41,45,-1,46,47,48,-1,48,47,49,-1,47,50,49,-1,49,50,51,-1,50,52,51,-1,51,52,53,-1,54,55,56,-1,54,56,57,-1,57,56,53,-1,57,53,52,-1,58,59,60,-1,58,60,61,-1,61,60,62,-1,61,62,63,-1,63,62,55,-1,63,55,54,-1,46,48,64,-1,46,64,65,-1,65,64,66,-1,65,66,67,-1,67,66,68,-1,67,68,69,-1,69,68,59,-1,69,59,58,-1,70,71,67,-1,67,71,72,-1,67,72,65,-1,65,72,73,-1,65,73,46,-1,46,73,74,-1,46,74,47,-1,47,74,75,-1,47,75,50,-1,50,75,76,-1,50,76,52,-1,52,76,77,-1,52,77,57,-1,57,77,78,-1,57,78,54,-1,54,78,79,-1,54,79,63,-1,63,79,80,-1,63,80,61,-1,61,80,81,-1,61,81,58,-1,58,81,82,-1,58,82,69,-1,69,82,70,-1,69,70,67,-1,76,75,83,-1,83,75,84,-1,77,76,85,-1,85,76,83,-1,77,85,86,-1,77,86,78,-1,78,86,87,-1,78,87,79,-1,79,87,88,-1,79,88,80,-1,80,88,89,-1,80,89,81,-1,81,89,90,-1,81,90,82,-1,82,90,91,-1,82,91,70,-1,70,91,92,-1,70,92,71,-1,71,92,93,-1,71,93,72,-1,72,93,94,-1,72,94,73,-1,73,94,95,-1,73,95,74,-1,75,74,84,-1,84,74,95,-1,96,97,98,-1,98,97,99,-1,97,100,99,-1,99,100,101,-1,100,102,101,-1,101,102,103,-1,102,104,103,-1,103,104,105,-1,104,106,105,-1,105,106,107,-1,106,108,107,-1,107,108,109,-1,108,110,109,-1,109,110,111,-1,110,112,111,-1,111,112,113,-1,112,114,113,-1,113,114,115,-1,114,116,115,-1,115,116,117,-1,116,118,117,-1,117,118,119,-1,118,96,119,-1,119,96,98,-1,96,118,116,-1,116,114,96,-1,96,114,112,-1,96,112,97,-1,102,100,104,-1,104,100,97,-1,104,97,106,-1,106,97,112,-1,106,112,108,-1,108,112,110,-1,120,121,122,-1,122,121,123,-1,122,123,124,-1,124,123,125,-1,124,125,126,-1,126,125,127,-1,126,127,128,-1,128,127,129,-1,128,129,130,-1,129,131,130,-1,130,131,132,-1,133,134,135,-1,133,135,136,-1,136,135,137,-1,136,137,138,-1,138,137,139,-1,138,139,140,-1,140,139,132,-1,140,132,131,-1,141,142,143,-1,141,143,144,-1,144,143,145,-1,144,145,146,-1,146,145,147,-1,146,147,148,-1,148,147,134,-1,148,134,133,-1,149,150,151,-1,149,151,152,-1,152,151,153,-1,152,153,154,-1,154,153,155,-1,154,155,156,-1,156,155,142,-1,156,142,141,-1,157,158,159,-1,157,159,160,-1,160,159,150,-1,160,150,149,-1,157,161,158,-1,158,161,162,-1,163,164,165,-1,163,165,166,-1,166,165,167,-1,166,167,168,-1,167,169,168,-1,168,169,170,-1,168,170,171,-1,171,170,162,-1,171,162,161,-1,164,163,172,-1,172,163,173,-1,172,173,174,-1,174,173,175,-1,174,175,176,-1,176,175,177,-1,176,177,178,-1,178,177,179,-1,178,179,180,-1,181,182,183,-1,181,183,184,-1,184,183,180,-1,184,180,179,-1,121,120,185,-1,121,185,186,-1,186,185,187,-1,186,187,188,-1,187,189,188,-1,188,189,190,-1,188,190,191,-1,191,190,182,-1,191,182,181,-1,161,157,171,-1,171,157,160,-1,181,184,156,-1,156,184,154,-1,154,184,179,-1,154,179,177,-1,131,129,127,-1,131,127,140,-1,140,127,125,-1,140,125,123,-1,177,175,154,-1,154,175,173,-1,154,173,152,-1,152,173,163,-1,152,163,149,-1,149,163,166,-1,149,166,160,-1,160,166,168,-1,160,168,171,-1,156,141,181,-1,181,141,144,-1,181,144,191,-1,191,144,146,-1,191,146,188,-1,188,146,148,-1,188,148,186,-1,186,148,133,-1,186,133,121,-1,121,133,136,-1,121,136,123,-1,123,136,138,-1,123,138,140,-1,192,193,194,-1,194,193,195,-1,193,196,195,-1,195,196,197,-1,196,198,197,-1,197,198,199,-1,198,200,199,-1,199,200,201,-1,200,202,201,-1,201,202,203,-1,202,192,203,-1,203,192,194,-1,196,193,198,-1,198,193,192,-1,198,192,200,-1,200,192,202,-1,
        ]
    }
}
Shape{
    appearance Appearance {
        material  Material 	{
            diffuseColor 0.14901960784313725 0.14901960784313725 0.14901960784313725
            specularColor 0.07450980392156863 0.07450980392156863 0.07450980392156863
            ambientIntensity 0.2
            transparency 0
            shininess 0.5
        }
    }
    geometry IndexedFaceSet {
        ccw TRUE
        solid FALSE
        coord DEF co Coordinate {
            point [
                -0.6409 0.1268 0.2756, -0.6123 0.0666 0.2756, -0.6686 0.0666 0.2756, -0.43 0.1413 0.2756, -0.43 0.0162 0.2756, -0.4411 0.1413 0.2756, -0.4481 0.0162 0.2756, -0.4655 0.1406 0.2756, -0.4708 0.0168 0.2756, -0.4895 0.1369 0.2756, -0.4931 0.0202 0.2756, -0.5156 0.0341 0.2756, -0.5285 0.0572 0.2756, -0.531 0.0768 0.2756, -0.5241 0.1082 0.2756, -0.5069 0.1285 0.2756, -2.3031 0.3031 3.3071, -2.3031 0.3031 2.5591, -2.6969 0.3031 3.3071, -2.6969 0.3031 2.5591, -2.3031 0.6969 3.3071, -2.3031 0.6969 2.5591, -2.6969 0.6969 3.3071, -2.6969 0.6969 2.5591, -2.2638 0.2638 3.3465, -2.7362 0.2638 3.3465, -2.7362 0.7362 3.3465, -2.2638 0.7362 3.3465, -2.6969 -0.3031 3.3071, -2.6969 -0.3031 2.5591, -2.3031 -0.3031 3.3071, -2.3031 -0.3031 2.5591, -2.6969 -0.6969 3.3071, -2.6969 -0.6969 2.5591, -2.3031 -0.6969 3.3071, -2.3031 -0.6969 2.5591, -2.7362 -0.2638 3.3465, -2.2638 -0.2638 3.3465, -2.2638 -0.7362 3.3465, -2.7362 -0.7362 3.3465, -2.7362 -0.7362 3.3465
            ]
        }
        coordIndex [
            0,1,2,-1,3,4,5,-1,5,4,6,-1,5,6,7,-1,7,6,8,-1,7,8,9,-1,10,11,8,-1,8,11,12,-1,8,12,13,-1,13,14,8,-1,8,14,15,-1,8,15,9,-1,16,17,18,-1,18,17,19,-1,20,21,16,-1,16,21,17,-1,22,23,20,-1,20,23,21,-1,23,19,21,-1,21,19,17,-1,18,19,22,-1,22,19,23,-1,24,16,25,-1,25,16,18,-1,25,18,26,-1,26,18,22,-1,20,27,22,-1,22,27,26,-1,27,20,24,-1,24,20,16,-1,28,29,30,-1,30,29,31,-1,32,33,28,-1,28,33,29,-1,34,35,32,-1,32,35,33,-1,35,31,33,-1,33,31,29,-1,30,31,34,-1,34,31,35,-1,36,28,37,-1,37,28,30,-1,37,30,38,-1,38,30,34,-1,32,39,34,-1,34,39,38,-1,39,32,36,-1,36,32,28,-1,
        ]
    }
}
Shape{
    appearance Appearance {
        material  Material 	{
            diffuseColor 0.7529411764705882 0.7529411764705882 0.7529411764705882
            specularColor 0.3764705882352941 0.3764705882352941 0.3764705882352941
            ambientIntensity 0.2
            transparency 0
            shininess 0.5
        }
    }
    geometry IndexedFaceSet {
        ccw TRUE
        solid FALSE
        coord DEF co Coordinate {
            point [
                -2.626 -0.4213 -1.2205, -2.626 -0.4213 0.2756, -2.374 -0.4213 -1.2205, -2.374 -0.4213 0.2756, -2.626 -0.4606 -1.2598, -2.374 -0.4606 -1.2598, -2.626 -0.5394 -1.2598, -2.374 -0.5394 -1.2598, -2.626 -0.5787 -1.2205, -2.374 -0.5787 -1.2205, -2.626 -0.5787 0.2756, -2.374 -0.5787 0.2756, -2.626 0.5787 -1.2205, -2.626 0.5787 0.2756, -2.374 0.5787 -1.2205, -2.374 0.5787 0.2756, -2.626 0.5394 -1.2598, -2.374 0.5394 -1.2598, -2.626 0.4606 -1.2598, -2.374 0.4606 -1.2598, -2.626 0.4213 -1.2205, -2.374 0.4213 -1.2205, -2.626 0.4213 0.2756, -2.374 0.4213 0.2756, -1.626 -0.4213 -1.2205, -1.626 -0.4213 0.2756, -1.374 -0.4213 -1.2205, -1.374 -0.4213 0.2756, -1.626 -0.4606 -1.2598, -1.374 -0.4606 -1.2598, -1.626 -0.5394 -1.2598, -1.374 -0.5394 -1.2598, -1.626 -0.5787 -1.2205, -1.374 -0.5787 -1.2205, -1.626 -0.5787 0.2756, -1.374 -0.5787 0.2756, -1.626 0.5787 -1.2205, -1.626 0.5787 0.2756, -1.374 0.5787 -1.2205, -1.374 0.5787 0.2756, -1.626 0.5394 -1.2598, -1.374 0.5394 -1.2598, -1.626 0.4606 -1.2598, -1.374 0.4606 -1.2598, -1.626 0.4213 -1.2205, -1.374 0.4213 -1.2205, -1.626 0.4213 0.2756, -1.374 0.4213 0.2756, -0.374 -0.4213 0.2756, -0.374 -0.4213 -1.2205, -0.4018 -0.4213 0.2756, -0.626 -0.4213 -1.2205, -0.5552 -0.4213 0.2756, -0.626 -0.4213 0.2756, -0.626 -0.4606 -1.2598, -0.374 -0.4606 -1.2598, -0.626 -0.5394 -1.2598, -0.374 -0.5394 -1.2598, -0.626 -0.5787 -1.2205, -0.374 -0.5787 -1.2205, -0.626 -0.5787 0.2756, -0.5552 -0.5787 0.2756, -0.4018 -0.5787 0.2756, -0.374 -0.5787 0.2756, -0.374 0.5787 0.2756, -0.374 0.5787 -1.2205, -0.4018 0.5787 0.2756, -0.626 0.5787 -1.2205, -0.5552 0.5787 0.2756, -0.626 0.5787 0.2756, -0.626 0.5394 -1.2598, -0.374 0.5394 -1.2598, -0.626 0.4606 -1.2598, -0.374 0.4606 -1.2598, -0.626 0.4213 -1.2205, -0.374 0.4213 -1.2205, -0.626 0.4213 0.2756, -0.5552 0.4213 0.2756, -0.4018 0.4213 0.2756, -0.374 0.4213 0.2756, 0.374 -0.4213 -1.2205, 0.374 -0.4213 0.2756, 0.626 -0.4213 -1.2205, 0.626 -0.4213 0.2756, 0.374 -0.4606 -1.2598, 0.626 -0.4606 -1.2598, 0.374 -0.5394 -1.2598, 0.626 -0.5394 -1.2598, 0.374 -0.5787 -1.2205, 0.626 -0.5787 -1.2205, 0.374 -0.5787 0.2756, 0.626 -0.5787 0.2756, 0.374 0.5787 -1.2205, 0.374 0.5787 0.2756, 0.626 0.5787 -1.2205, 0.626 0.5787 0.2756, 0.374 0.5394 -1.2598, 0.626 0.5394 -1.2598, 0.374 0.4606 -1.2598, 0.626 0.4606 -1.2598, 0.374 0.4213 -1.2205, 0.626 0.4213 -1.2205, 0.374 0.4213 0.2756, 0.626 0.4213 0.2756, 1.374 -0.4213 -1.2205, 1.374 -0.4213 0.2756, 1.626 -0.4213 -1.2205, 1.626 -0.4213 0.2756, 1.374 -0.4606 -1.2598, 1.626 -0.4606 -1.2598, 1.374 -0.5394 -1.2598, 1.626 -0.5394 -1.2598, 1.374 -0.5787 -1.2205, 1.626 -0.5787 -1.2205, 1.374 -0.5787 0.2756, 1.626 -0.5787 0.2756, 1.374 0.5787 -1.2205, 1.374 0.5787 0.2756, 1.626 0.5787 -1.2205, 1.626 0.5787 0.2756, 1.374 0.5394 -1.2598, 1.626 0.5394 -1.2598, 1.374 0.4606 -1.2598, 1.626 0.4606 -1.2598, 1.374 0.4213 -1.2205, 1.626 0.4213 -1.2205, 1.374 0.4213 0.2756, 1.626 0.4213 0.2756, 2.374 -0.4213 -1.2205, 2.374 -0.4213 0.2756, 2.626 -0.4213 -1.2205, 2.626 -0.4213 0.2756, 2.374 -0.4606 -1.2598, 2.626 -0.4606 -1.2598, 2.374 -0.5394 -1.2598, 2.626 -0.5394 -1.2598, 2.374 -0.5787 -1.2205, 2.626 -0.5787 -1.2205, 2.374 -0.5787 0.2756, 2.626 -0.5787 0.2756, 2.374 0.5787 -1.2205, 2.374 0.5787 0.2756, 2.626 0.5787 -1.2205, 2.626 0.5787 0.2756, 2.374 0.5394 -1.2598, 2.626 0.5394 -1.2598, 2.374 0.4606 -1.2598, 2.626 0.4606 -1.2598, 2.374 0.4213 -1.2205, 2.626 0.4213 -1.2205, 2.374 0.4213 0.2756, 2.626 0.4213 0.2756, 3.374 -0.4213 -1.2205, 3.374 -0.4213 0.2756, 3.626 -0.4213 -1.2205, 3.626 -0.4213 0.2756, 3.374 -0.4606 -1.2598, 3.626 -0.4606 -1.2598, 3.374 -0.5394 -1.2598, 3.626 -0.5394 -1.2598, 3.374 -0.5787 -1.2205, 3.626 -0.5787 -1.2205, 3.374 -0.5787 0.2756, 3.626 -0.5787 0.2756, 3.374 0.5787 -1.2205, 3.374 0.5787 0.2756, 3.626 0.5787 -1.2205, 3.626 0.5787 0.2756, 3.374 0.5394 -1.2598, 3.626 0.5394 -1.2598, 3.374 0.4606 -1.2598, 3.626 0.4606 -1.2598, 3.374 0.4213 -1.2205, 3.626 0.4213 -1.2205, 3.374 0.4213 0.2756, 3.626 0.4213 0.2756, 3.626 0.4213 0.2756
            ]
        }
        coordIndex [
            0,1,2,-1,2,1,3,-1,4,0,5,-1,5,0,2,-1,6,4,7,-1,7,4,5,-1,8,6,9,-1,9,6,7,-1,10,8,11,-1,11,8,9,-1,6,8,4,-1,4,8,10,-1,4,10,0,-1,0,10,1,-1,2,3,5,-1,5,3,11,-1,5,11,7,-1,7,11,9,-1,12,13,14,-1,14,13,15,-1,16,12,17,-1,17,12,14,-1,18,16,19,-1,19,16,17,-1,20,18,21,-1,21,18,19,-1,22,20,23,-1,23,20,21,-1,20,22,18,-1,18,22,13,-1,18,13,16,-1,16,13,12,-1,17,14,19,-1,19,14,15,-1,19,15,21,-1,21,15,23,-1,24,25,26,-1,26,25,27,-1,28,24,29,-1,29,24,26,-1,30,28,31,-1,31,28,29,-1,32,30,33,-1,33,30,31,-1,34,32,35,-1,35,32,33,-1,30,32,28,-1,28,32,34,-1,28,34,24,-1,24,34,25,-1,26,27,29,-1,29,27,35,-1,29,35,31,-1,31,35,33,-1,36,37,38,-1,38,37,39,-1,40,36,41,-1,41,36,38,-1,42,40,43,-1,43,40,41,-1,44,42,45,-1,45,42,43,-1,46,44,47,-1,47,44,45,-1,44,46,42,-1,42,46,37,-1,42,37,40,-1,40,37,36,-1,41,38,43,-1,43,38,39,-1,43,39,45,-1,45,39,47,-1,48,49,50,-1,50,49,51,-1,50,51,52,-1,52,51,53,-1,54,51,55,-1,55,51,49,-1,56,54,57,-1,57,54,55,-1,58,56,59,-1,59,56,57,-1,60,58,61,-1,61,58,59,-1,61,59,62,-1,62,59,63,-1,56,58,54,-1,54,58,60,-1,54,60,51,-1,51,60,53,-1,49,48,55,-1,55,48,63,-1,55,63,57,-1,57,63,59,-1,64,65,66,-1,66,65,67,-1,66,67,68,-1,68,67,69,-1,70,67,71,-1,71,67,65,-1,72,70,73,-1,73,70,71,-1,74,72,75,-1,75,72,73,-1,76,74,77,-1,77,74,75,-1,77,75,78,-1,78,75,79,-1,74,76,72,-1,72,76,69,-1,72,69,70,-1,70,69,67,-1,71,65,73,-1,73,65,64,-1,73,64,75,-1,75,64,79,-1,80,81,82,-1,82,81,83,-1,84,80,85,-1,85,80,82,-1,86,84,87,-1,87,84,85,-1,88,86,89,-1,89,86,87,-1,90,88,91,-1,91,88,89,-1,86,88,84,-1,84,88,90,-1,84,90,80,-1,80,90,81,-1,82,83,85,-1,85,83,91,-1,85,91,87,-1,87,91,89,-1,92,93,94,-1,94,93,95,-1,96,92,97,-1,97,92,94,-1,98,96,99,-1,99,96,97,-1,100,98,101,-1,101,98,99,-1,102,100,103,-1,103,100,101,-1,100,102,98,-1,98,102,93,-1,98,93,96,-1,96,93,92,-1,97,94,99,-1,99,94,95,-1,99,95,101,-1,101,95,103,-1,104,105,106,-1,106,105,107,-1,108,104,109,-1,109,104,106,-1,110,108,111,-1,111,108,109,-1,112,110,113,-1,113,110,111,-1,114,112,115,-1,115,112,113,-1,110,112,108,-1,108,112,114,-1,108,114,104,-1,104,114,105,-1,106,107,109,-1,109,107,115,-1,109,115,111,-1,111,115,113,-1,116,117,118,-1,118,117,119,-1,120,116,121,-1,121,116,118,-1,122,120,123,-1,123,120,121,-1,124,122,125,-1,125,122,123,-1,126,124,127,-1,127,124,125,-1,124,126,122,-1,122,126,117,-1,122,117,120,-1,120,117,116,-1,121,118,123,-1,123,118,119,-1,123,119,125,-1,125,119,127,-1,128,129,130,-1,130,129,131,-1,132,128,133,-1,133,128,130,-1,134,132,135,-1,135,132,133,-1,136,134,137,-1,137,134,135,-1,138,136,139,-1,139,136,137,-1,134,136,132,-1,132,136,138,-1,132,138,128,-1,128,138,129,-1,130,131,133,-1,133,131,139,-1,133,139,135,-1,135,139,137,-1,140,141,142,-1,142,141,143,-1,144,140,145,-1,145,140,142,-1,146,144,147,-1,147,144,145,-1,148,146,149,-1,149,146,147,-1,150,148,151,-1,151,148,149,-1,148,150,146,-1,146,150,141,-1,146,141,144,-1,144,141,140,-1,145,142,147,-1,147,142,143,-1,147,143,149,-1,149,143,151,-1,152,153,154,-1,154,153,155,-1,156,152,157,-1,157,152,154,-1,158,156,159,-1,159,156,157,-1,160,158,161,-1,161,158,159,-1,162,160,163,-1,163,160,161,-1,158,160,156,-1,156,160,162,-1,156,162,152,-1,152,162,153,-1,154,155,157,-1,157,155,163,-1,157,163,159,-1,159,163,161,-1,164,165,166,-1,166,165,167,-1,168,164,169,-1,169,164,166,-1,170,168,171,-1,171,168,169,-1,172,170,173,-1,173,170,171,-1,174,172,175,-1,175,172,173,-1,172,174,170,-1,170,174,165,-1,170,165,168,-1,168,165,164,-1,169,166,171,-1,171,166,167,-1,171,167,173,-1,173,167,175,-1,
        ]
    }
}